<?xml version="1.0" encoding="UTF-8"?>
<!-- Created with Inkscape (http://www.inkscape.org/) -->
<svg width="1557.3" height="369.04" version="1.1" viewBox="0 0 1557.3 369.04" xmlns="http://www.w3.org/2000/svg">
 <g transform="translate(-134.42 -13.459)">
  <path d="m211.01 311.87c-33.355-7.0466-63.864-35.102-73.746-67.814-4.0368-13.362-3.7254-38.202 0.65164-51.975 7.7534-24.398 26.911-46.255 50.343-57.435 11.344-5.4126 17.939-7.1683 38.63-10.284 6.1382-0.92432 6.635-1.4294 6.635-6.7473 0-3.1615 1.8163-11.845 4.0362-19.297 11.765-39.494 45.636-71.15 87.181-81.481 15.111-3.7575 40.436-4.5148 53.867-1.6106 31.337 6.7761 63.041 29.772 77.458 56.183 5.6447 10.341 6.0243 10.652 14.155 11.606 22.618 2.6544 32.438 5.0725 45.51 11.207 38.881 18.246 64.385 59.458 60.216 97.305-0.67385 6.1178-1.7929 11.123-2.4867 11.123s-2.2721-3.6771-3.5072-8.1714c-10.223-37.197-46.465-70.191-86.649-78.884-17.938-3.8802-48.107-2.6436-64.001 2.6234-25.498 8.4493-52.237 29.128-65.148 50.384-10.969 18.059-15.089 32.512-15.88 55.709-0.52471 15.39 0.0363 23.668 2.1562 31.825 4.0088 15.424 14.901 36.752 24.739 48.441l8.3251 9.8916-75.736-0.13676c-56.591-0.10219-78.52-0.72487-86.749-2.4634z" fill="#005293" stroke-width="1.7446"/>
  <path d="m588.27 380.82c-6.6338-2.9281-50.935-46.535-60.951-59.996-4.0909-5.4978-8.4974-10.391-9.7922-10.874-1.2948-0.48309-5.5983 1.1128-9.5634 3.5464-3.965 2.4336-13.394 6.4718-20.954 8.9736-51.693 17.107-109.43-12.51-126.25-64.762-4.199-13.044-4.9592-38.807-1.5481-52.469 8.0712-32.326 36.443-60.61 70.585-70.366 12.404-3.5446 37.964-3.5548 52.061-0.0209 26.488 6.6401 52.853 27.668 63.794 50.881 13.997 29.696 13.422 60.153-1.6981 89.928-7.0711 13.925-6.9497 14.229 9.8171 24.61 5.3522 3.3139 21.077 17.086 34.944 30.604 24.979 24.351 25.213 24.651 25.213 32.343 0 6.3758-0.97323 8.7101-5.4441 13.057-2.9942 2.9112-6.512 5.2932-7.8173 5.2932-1.3052 0-3.4335 0.35884-4.7295 0.79742-1.296 0.43857-4.745-0.25691-7.6643-1.5455zm-103-83.363c12.617-4.8264 29.171-19.294 36.683-32.061 16.684-28.352 11.535-65.321-12.347-88.657-29.365-28.694-75.554-29.053-105.99-0.82363-17.078 15.839-24.35 34.407-22.815 58.26 1.9711 30.638 21.007 54.637 51.75 65.243 12.646 4.3627 38.726 3.3925 52.722-1.9614z" fill="#00223c" stroke-width="1.7446"/>
  <text fill="#003661" font-size="85.333px" style="shape-inside:url(#rect5646);white-space:pre" xml:space="preserve"/>
  <text x="583.83441" y="249.30972" fill="#003661" font-size="186.67px" xml:space="preserve"><tspan x="583.83441" y="249.30972" fill="#003661" font-family="'JetBrains Mono'" font-size="186.67px" font-weight="bold">cloudspecs</tspan></text>
 </g>
</svg>
