<?xml version="1.0" encoding="UTF-8" standalone="no"?>
<!-- Created with Inkscape (http://www.inkscape.org/) -->

<svg
   version="1.1"
   id="svg113"
   width="941.74335"
   height="369.035"
   viewBox="0 0 941.74335 369.03501"
   sodipodi:docname="cloudspec-logo.svg"
   inkscape:version="1.2.2 (b0a8486541, 2022-12-01)"
   xmlns:inkscape="http://www.inkscape.org/namespaces/inkscape"
   xmlns:sodipodi="http://sodipodi.sourceforge.net/DTD/sodipodi-0.dtd"
   xmlns="http://www.w3.org/2000/svg"
   xmlns:svg="http://www.w3.org/2000/svg">
  <sodipodi:namedview
     id="namedview13"
     pagecolor="#ffffff"
     bordercolor="#666666"
     borderopacity="1.0"
     inkscape:showpageshadow="2"
     inkscape:pageopacity="0.0"
     inkscape:pagecheckerboard="0"
     inkscape:deskcolor="#d1d1d1"
     showgrid="false"
     showguides="true"
     inkscape:zoom="1.1198"
     inkscape:cx="974.72762"
     inkscape:cy="-206.73334"
     inkscape:window-width="3808"
     inkscape:window-height="2098"
     inkscape:window-x="10"
     inkscape:window-y="10"
     inkscape:window-maximized="1"
     inkscape:current-layer="g119">
    <sodipodi:guide
       position="163.33429,68.156449"
       orientation="0,-1"
       id="guide402"
       inkscape:locked="false" />
    <sodipodi:guide
       position="293.07589,369.035"
       orientation="0,-1"
       id="guide404"
       inkscape:locked="false" />
    <sodipodi:guide
       position="441.52214,190.96143"
       orientation="1,0"
       id="guide406"
       inkscape:locked="false" />
    <sodipodi:guide
       position="463.56958,276.40871"
       orientation="1,0"
       id="guide408"
       inkscape:locked="false" />
    <sodipodi:guide
       position="-151.03149,184.51751"
       orientation="0,1"
       id="guide410"
       inkscape:locked="false"
       inkscape:label=""
       inkscape:color="rgb(0,134,229)" />
  </sodipodi:namedview>
  <defs
     id="defs117">
    <rect
       x="-632.29553"
       y="606.93878"
       width="474.31967"
       height="80.975227"
       id="rect5646" />
  </defs>
  <g
     id="g119"
     transform="translate(-134.42125,-13.458664)">
    <path
       style="fill:#005293;fill-opacity:1;stroke-width:1.74463"
       d="m 211.00701,311.87387 c -33.35451,-7.04659 -63.86372,-35.10154 -73.74607,-67.81371 -4.03681,-13.36248 -3.72538,-38.20189 0.65164,-51.97523 7.75343,-24.39797 26.91138,-46.25497 50.34271,-57.43516 11.34372,-5.41262 17.93859,-7.16831 38.63008,-10.28414 6.13825,-0.92432 6.63497,-1.42945 6.63497,-6.74726 0,-3.16148 1.81628,-11.84513 4.03617,-19.29699 11.76509,-39.49372 45.63589,-71.14977 87.18144,-81.48082 15.11064,-3.75754 40.43616,-4.51477 53.86695,-1.61062 31.33725,6.77608 63.04121,29.77229 77.45789,56.18339 5.64472,10.34104 6.02432,10.6523 14.1546,11.60647 22.61783,2.65439 32.43751,5.07252 45.51013,11.20704 38.88119,18.24557 64.38454,59.45755 60.21586,97.3054 -0.67385,6.11779 -1.79286,11.12325 -2.4867,11.12325 -0.69384,0 -2.27208,-3.67711 -3.50719,-8.17135 -10.2226,-37.19725 -46.46464,-70.19126 -86.64924,-78.88369 -17.93782,-3.88018 -48.10653,-2.64357 -64.0009,2.62338 -25.49797,8.44931 -52.23666,29.12838 -65.1479,50.38382 -10.96935,18.05859 -15.08932,32.51164 -15.88022,55.70858 -0.52471,15.38963 0.0363,23.66849 2.15624,31.82527 4.00885,15.42396 14.90104,36.75184 24.73882,48.44085 l 8.32506,9.89163 -75.73581,-0.13676 c -56.59137,-0.10219 -78.5196,-0.72487 -86.74853,-2.46335 z"
       id="path3207" />
    <path
       style="fill:#00223c;fill-opacity:1;stroke-width:1.74463"
       d="m 588.2698,380.81699 c -6.63383,-2.92813 -50.93454,-46.53482 -60.95123,-59.99636 -4.09092,-5.49783 -8.49743,-10.39131 -9.79225,-10.87441 -1.29481,-0.48309 -5.59832,1.11281 -9.56335,3.54644 -3.96502,2.43365 -13.39441,6.47178 -20.95418,8.97364 -51.69258,17.10732 -109.43158,-12.51032 -126.25168,-64.7617 -4.19904,-13.04425 -4.95918,-38.80704 -1.54811,-52.46868 8.07116,-32.32567 36.4431,-60.6095 70.5851,-70.36591 12.40404,-3.54458 37.96369,-3.55484 52.06087,-0.0209 26.48804,6.64012 52.853,27.66822 63.79398,50.88067 13.99699,29.69603 13.42187,60.15326 -1.69808,89.9279 -7.07107,13.92452 -6.94966,14.2289 9.81711,24.61042 5.3522,3.31394 21.07707,17.08583 34.94415,30.6042 24.97894,24.3508 25.21286,24.65088 25.21286,32.34264 0,6.37585 -0.97323,8.71006 -5.44406,13.05697 -2.99425,2.91124 -6.51202,5.29318 -7.81727,5.29318 -1.30522,0 -3.43353,0.35884 -4.72952,0.79742 -1.29601,0.43857 -4.74496,-0.25691 -7.66434,-1.5455 z M 485.26786,297.45404 c 12.61695,-4.82645 29.17087,-19.29444 36.68334,-32.06094 16.68377,-28.35194 11.53532,-65.32138 -12.3466,-88.6572 -29.36509,-28.69361 -75.55445,-29.05254 -105.99316,-0.82363 -17.07838,15.83852 -24.34977,34.40654 -22.81516,58.26019 1.97108,30.63789 21.00707,54.63725 51.7499,65.24296 12.64619,4.36271 38.72601,3.39247 52.72168,-1.96138 z"
       id="path4126" />
    <text
       xml:space="preserve"
       id="text5644"
       style="font-size:85.3333px;white-space:pre;shape-inside:url(#rect5646);display:inline;fill:#003661;fill-opacity:1"><tspan
         x="-632.29492"
         y="765.55671"
         id="tspan561"><tspan
           dx="0 53.930641 22.015938 51.62661 52.735985 52.47995 40.874664 52.47995 48.12793 40.95993"
           id="tspan559">Cloudspecs</tspan></tspan></text>
    <text
       xml:space="preserve"
       style="font-size:166.667px;fill:#003661;fill-opacity:1"
       x="587.22308"
       y="229.69064"
       id="text400"><tspan
         id="tspan398"
         x="587.22308"
         y="229.69064"
         style="font-style:normal;font-variant:normal;font-weight:bold;font-stretch:normal;font-size:166.667px;font-family:'JetBrains Mono';-inkscape-font-specification:'JetBrains Mono';fill:#003661;fill-opacity:1">specs</tspan></text>
  </g>
</svg>
