<?xml version="1.0" encoding="UTF-8"?>
<!-- Created with Inkscape (http://www.inkscape.org/) -->
<svg width="999.7" height="369.04" version="1.1" viewBox="0 0 999.7 369.04" xmlns="http://www.w3.org/2000/svg">
 <g transform="translate(-134.42 -13.459)">
  <g fill="#003661" aria-label="specs">
   <path d="m637.96 318.61q-18.293 0-28.933-8.2133-10.64-8.4-10.64-22.587h22.96q0 5.9733 4.2933 9.1467 4.48 3.1733 12.32 3.1733h8.2134q8.4 0 12.88-3.1733 4.6667-3.1733 4.6667-9.1467 0-5.6-3.1733-8.2134-3.1733-2.8-9.7067-3.7333l-25.573-3.36q-12.32-1.68-19.04-9.52-6.5333-7.84-6.5333-20.347 0-14.56 9.7067-22.213 9.7067-7.84 28-7.84h8.5867q17.173 0 27.627 7.84 10.453 7.84 10.827 20.907h-23.147q-0.18667-4.8533-4.2933-7.6533-4.1067-2.9867-11.013-2.9867h-8.5867q-7.4667 0-11.387 3.1733-3.92 2.9867-3.92 8.2134 0 4.6667 2.8 6.9067 2.9867 2.24 8.5867 2.8l24.08 3.36q14.187 1.68 21.28 10.08 7.28 8.2134 7.28 22.213 0 14.933-10.267 23.147-10.08 8.0267-29.68 8.0267z"/>
   <path d="m712.62 350.53v-136.27h22.773v18.853q2.8-9.7067 10.08-15.12 7.28-5.6 18.107-5.6 9.8934 0 17.36 4.8533 7.6534 4.8533 11.76 13.813 4.2933 8.7734 4.2933 20.533v27.813q0 17.733-9.1467 28.56-9.1467 10.827-24.267 10.827-10.827 0-18.293-5.6-7.28-5.6-10.08-15.68l0.74667 24.267v28.747zm42.187-51.893q8.96 0 13.813-4.8533 5.04-4.8533 5.04-14.933v-26.507q0-10.08-5.04-14.933-4.8533-4.8534-13.813-4.8534t-14 5.4134q-4.8533 5.4133-4.8533 15.307v24.64q0 9.8934 4.8533 15.307 5.04 5.4133 14 5.4133z"/>
   <path d="m866.44 318.79q-13.067 0-22.773-5.04-9.7067-5.04-15.12-14.187-5.2267-9.3334-5.2267-21.84v-24.267q0-12.507 5.2267-21.653 5.4133-9.3334 15.12-14.373 9.7067-5.04 22.773-5.04 12.88 0 22.4 5.04 9.7067 5.04 14.933 14.187 5.4134 8.96 5.4134 21.093v18.667h-63.467v7.0934q0 10.453 5.4134 15.867 5.4133 5.2267 15.307 5.2267 7.28 0 12.32-2.4267 5.2267-2.6133 6.16-7.4667h23.147q-2.4267 13.253-13.813 21.28-11.387 7.84-27.813 7.84zm-20.72-66.08v3.5467l41.067-0.18666v-3.5467q0-10.64-5.2267-16.427-5.2267-5.7867-15.12-5.7867-10.267 0-15.493 5.9733-5.2267 5.7867-5.2267 16.427z"/>
   <path d="m979.93 318.79q-13.253 0-23.147-4.8533-9.7067-5.04-15.12-14-5.4133-9.1467-5.4133-21.467v-25.76q0-12.32 5.4133-21.28 5.4134-9.1467 15.12-14 9.8934-5.04 23.147-5.04 19.227 0 30.8 10.08 11.76 9.8934 12.32 27.067h-22.96q-0.55998-8.0267-6.16-12.32-5.4134-4.48-14-4.48-9.52 0-14.933 5.2267-5.4133 5.04-5.4133 14.56v25.947q0 9.52 5.4133 14.747t14.933 5.2267q8.7734 0 14.187-4.2933 5.4134-4.48 5.9733-12.507h22.96q-0.56 17.173-12.32 27.253-11.573 9.8934-30.8 9.8934z"/>
   <path d="m1086 318.61q-18.293 0-28.933-8.2133-10.64-8.4-10.64-22.587h22.96q0 5.9733 4.2934 9.1467 4.48 3.1733 12.32 3.1733h8.2134q8.4 0 12.88-3.1733 4.6667-3.1733 4.6667-9.1467 0-5.6-3.1734-8.2134-3.1733-2.8-9.7067-3.7333l-25.573-3.36q-12.32-1.68-19.04-9.52-6.5333-7.84-6.5333-20.347 0-14.56 9.7067-22.213 9.7066-7.84 28-7.84h8.5867q17.173 0 27.627 7.84 10.453 7.84 10.827 20.907h-23.147q-0.1867-4.8533-4.2934-7.6533-4.1066-2.9867-11.013-2.9867h-8.5867q-7.4667 0-11.387 3.1733-3.92 2.9867-3.92 8.2134 0 4.6667 2.8 6.9067 2.9867 2.24 8.5867 2.8l24.08 3.36q14.187 1.68 21.28 10.08 7.28 8.2134 7.28 22.213 0 14.933-10.267 23.147-10.08 8.0267-29.68 8.0267z"/>
  </g>
  <g>
   <path d="m211.01 311.87c-33.355-7.0466-63.864-35.102-73.746-67.814-4.0368-13.362-3.7254-38.202 0.65164-51.975 7.7534-24.398 26.911-46.255 50.343-57.435 11.344-5.4126 17.939-7.1683 38.63-10.284 6.1382-0.92432 6.635-1.4294 6.635-6.7473 0-3.1615 1.8163-11.845 4.0362-19.297 11.765-39.494 45.636-71.15 87.181-81.481 15.111-3.7575 40.436-4.5148 53.867-1.6106 31.337 6.7761 63.041 29.772 77.458 56.183 5.6447 10.341 6.0243 10.652 14.155 11.606 22.618 2.6544 32.438 5.0725 45.51 11.207 38.881 18.246 64.385 59.458 60.216 97.305-0.67385 6.1178-1.7929 11.123-2.4867 11.123s-2.2721-3.6771-3.5072-8.1714c-10.223-37.197-46.465-70.191-86.649-78.884-17.938-3.8802-48.107-2.6436-64.001 2.6234-25.498 8.4493-52.237 29.128-65.148 50.384-10.969 18.059-15.089 32.512-15.88 55.709-0.52471 15.39 0.0363 23.668 2.1562 31.825 4.0088 15.424 14.901 36.752 24.739 48.441l8.3251 9.8916-75.736-0.13676c-56.591-0.10219-78.52-0.72487-86.749-2.4634z" fill="#005293" stroke-width="1.7446"/>
   <path d="m588.27 380.82c-6.6338-2.9281-50.935-46.535-60.951-59.996-4.0909-5.4978-8.4974-10.391-9.7922-10.874-1.2948-0.48309-5.5983 1.1128-9.5634 3.5464-3.965 2.4336-13.394 6.4718-20.954 8.9736-51.693 17.107-109.43-12.51-126.25-64.762-4.199-13.044-4.9592-38.807-1.5481-52.469 8.0712-32.326 36.443-60.61 70.585-70.366 12.404-3.5446 37.964-3.5548 52.061-0.0209 26.488 6.6401 52.853 27.668 63.794 50.881 13.997 29.696 13.422 60.153-1.6981 89.928-7.0711 13.925-6.9497 14.229 9.8171 24.61 5.3522 3.3139 21.077 17.086 34.944 30.604 24.979 24.351 25.213 24.651 25.213 32.343 0 6.3758-0.97323 8.7101-5.4441 13.057-2.9942 2.9112-6.512 5.2932-7.8173 5.2932-1.3052 0-3.4335 0.35884-4.7295 0.79742-1.296 0.43857-4.745-0.25691-7.6643-1.5455zm-103-83.363c12.617-4.8264 29.171-19.294 36.683-32.061 16.684-28.352 11.535-65.321-12.347-88.657-29.365-28.694-75.554-29.053-105.99-0.82363-17.078 15.839-24.35 34.407-22.815 58.26 1.9711 30.638 21.007 54.637 51.75 65.243 12.646 4.3627 38.726 3.3925 52.722-1.9614z" fill="#00223c" stroke-width="1.7446"/>
   <text fill="#003661" font-size="85.333px" style="shape-inside:url(#rect5646);white-space:pre" xml:space="preserve"/>
  </g>
  <g fill="#003661" aria-label="cloud">
   <path d="m642.06 173.36q-13.253 0-23.147-4.8534-9.7067-5.04-15.12-14-5.4133-9.1467-5.4133-21.467v-25.76q0-12.32 5.4133-21.28 5.4133-9.1467 15.12-14 9.8934-5.04 23.147-5.04 19.227 0 30.8 10.08 11.76 9.8934 12.32 27.067h-22.96q-0.56-8.0267-6.16-12.32-5.4133-4.48-14-4.48-9.52 0-14.933 5.2267-5.4134 5.04-5.4134 14.56v25.947q0 9.52 5.4134 14.747 5.4133 5.2267 14.933 5.2267 8.7734 0 14.187-4.2933 5.4133-4.48 5.9733-12.507h22.96q-0.56 17.173-12.32 27.253-11.573 9.8934-30.8 9.8934z"/>
   <path d="m769 171.5q-15.307 0-24.64-9.1467-9.1467-9.1467-9.1467-24.08v-81.947h-33.787v-21.093h57.12v102.48q0 5.7867 3.1733 9.3334 3.36 3.36 8.96 3.36h30.053v21.093z"/>
   <path d="m864.38 173.18q-19.787 0-31.36-11.013-11.573-11.2-11.573-30.053v-23.893q0-19.04 11.573-30.053 11.573-11.013 31.36-11.013 19.787 0 31.36 11.013 11.573 11.013 11.573 30.053v23.893q0 18.853-11.573 30.053-11.573 11.013-31.36 11.013zm0-20.347q9.3334 0 14.373-5.04 5.2267-5.2267 5.2267-14.933v-25.387q0-9.7067-5.2267-14.747-5.04-5.2267-14.373-5.2267t-14.56 5.2267q-5.04 5.04-5.04 14.747v25.387q0 9.7067 5.04 14.933 5.2267 5.04 14.56 5.04z"/>
   <path d="m976.38 173.36q-19.6 0-30.8-10.827-11.2-11.013-11.2-29.867v-63.84h23.333v63.653q0 9.7067 4.8533 15.12t13.813 5.4133q8.7734 0 13.627-5.4133 5.04-5.4133 5.04-15.12v-63.653h23.333v63.84q0 18.853-11.387 29.867-11.387 10.827-30.613 10.827z"/>
   <path d="m1079 173.36q-14.933 0-24.267-10.64-9.1467-10.64-9.1467-28.56v-27.813q0-18.107 9.1467-28.747 9.1467-10.64 24.267-10.64 10.64 0 17.92 5.4133 7.4667 5.4133 10.453 15.12l-0.7467-23.52v-28.747h23.333v136.27h-22.773v-18.667q-2.8 9.7067-10.08 15.12-7.28 5.4134-18.107 5.4134zm8.7734-20.16q8.96 0 13.813-5.4133 5.04-5.4134 5.04-15.307v-24.64q0-9.8934-5.04-15.307-4.8533-5.4133-13.813-5.4133-8.9601 0-14 4.8533-4.8533 4.8533-4.8533 14.933v26.507q0 10.08 4.8533 14.933 5.04 4.8533 14 4.8533z"/>
  </g>
 </g>
</svg>
